<?xml version="1.0" standalone="no"?>
<!DOCTYPE svg PUBLIC "-//W3C//DTD SVG 20010904//EN"
 "http://www.w3.org/TR/2001/REC-SVG-20010904/DTD/svg10.dtd">
<svg version="1.0" xmlns="http://www.w3.org/2000/svg"
 width="600.000000pt" height="600.000000pt" viewBox="0 0 600.000000 600.000000"
 preserveAspectRatio="xMidYMid meet">
<metadata>
Created by potrace 1.11, written by Peter Selinger 2001-2013
</metadata>
<g transform="translate(0.000000,600.000000) scale(0.100000,-0.100000)"
fill="#000000" stroke="none">
<path d="M2653 5944 c-1275 -154 -2304 -1102 -2557 -2355 -40 -198 -56 -364
-56 -594 0 -230 16 -396 56 -594 236 -1166 1149 -2079 2315 -2315 198 -40 364
-56 594 -56 230 0 396 16 594 56 1166 236 2079 1149 2315 2315 40 198 56 364
56 594 0 378 -52 681 -177 1025 -156 431 -437 852 -773 1158 -477 434 -1042
693 -1676 767 -160 19 -534 18 -691 -1z"/>
</g>
</svg>
